<svg height="366.305457" viewBox="0 0 1683 2259" width="272.996206" xmlns="http://www.w3.org/2000/svg"><g fill="#d13839"><path d="m1309.531372 1.000002c1.0354.662407 1.489136 1.734556 2.185669 1.926756 14.169312 3.910212 26.631714 10.871869 35.787598 22.38488 4.515258 5.677631 7.607666 12.630054 10.620117 19.330963 7.109741 15.814705 14.140625 31.683189 20.552002 47.789192 9.06665 22.776673 17.233642 45.913651 26.438598 68.631851 3.430787 8.467347 2.047242 15.386841-1.629394 23.276749-11.268555 24.181412-21.79541 48.70781-32.673218 73.072113-6.076294 13.609833-12.339111 27.136444-18.406738 40.750092-9.261475 20.779785-18.379517 41.623504-27.647583 62.400329-7.397339 16.583191-15.012573 33.069367-22.377808 49.666626-9.945556 22.41214-19.721069 44.899719-29.614136 67.335236-6.60437 14.97702-13.301391 29.913116-19.930419 44.879303-10.072754 22.740722-20.084351 45.508606-30.193604 68.233093-8.450195 18.995117-17.092529 37.905151-25.486328 56.924927-9.244141 20.946106-18.248413 41.997925-27.456909 62.959961-7.965454 18.132141-16.126831 36.178222-24.098999 54.307495-9.284302 21.113037-18.415406 42.293518-27.692139 63.409912-6.647461 15.131287-13.455688 30.191895-20.138184 45.307922-9.721801 21.990906-19.36621 44.015931-29.098388 66.002198-6.826782 15.422546-13.812134 30.775024-20.605713 46.212097-9.489746 21.563232-18.814697 43.199157-28.309265 64.760193-6.927307 15.731323-14.051453 31.375732-21.022156 47.088134-11.417175 25.734742-22.730652 51.515747-34.183472 77.23462-8.727966 19.599975-17.686218 39.097778-26.392883 58.707153-9.959778 22.431518-19.668152 44.974853-29.64856 67.397217-7.922973 17.800048-16.176879 35.452514-24.128723 53.23999-10.619507 23.754639-21.052185 47.592895-31.645752 71.359253-3.12207 7.004028-6.517578 13.88623-10.153137 21.599365-2.677063-5.697388-5.199707-10.843018-7.532654-16.073486-6.533752-14.64917-12.926696-29.361206-19.489746-43.997071-10.450195-23.304199-21.049316-46.541626-31.481384-69.853881-10.896606-24.35022-21.639282-48.769165-32.507202-73.132203-8.670838-19.437988-17.493897-38.808227-26.130554-58.26123-9.972229-22.461182-19.760559-45.004028-29.728943-67.466919-8.426819-18.989014-17.079651-37.87793-25.482422-56.877563-10.915405-24.681031-21.633728-49.449341-32.530396-74.138794-7.0083-15.879395-14.256958-31.65271-21.268432-47.530762-9.579773-21.694519-18.986023-43.465698-28.562927-65.161499-6.806946-15.420654-13.838318-30.742188-20.652405-46.159729-9.852539-22.292664-19.55542-44.65155-29.405457-66.945313-7.010864-15.867859-14.231201-31.643371-21.227966-47.517395-9.301666-21.103576-18.431732-42.282776-27.723053-63.39093-5.673767-12.889648-11.560974-25.68518-17.265503-38.561523-10.007996-22.590088-19.908783-45.227845-29.931213-67.811585-8.361908-18.84198-16.889557-37.610443-25.242249-56.456482-9.956055-22.463623-19.750885-44.998718-29.715759-67.458404-7.503968-16.913208-15.210205-33.736603-22.74643-50.63559-10.458679-23.452148-20.803955-46.954895-31.271301-70.403137-7.408691-16.596436-14.939362-33.138397-22.41507-49.704895-10.97821-24.328156-22.079742-48.602463-32.760131-73.060669-1.188568-2.721878-.838593-6.814453.256347-9.722137 7.540802-20.025071 15.270661-39.985001 23.337952-59.803788 6.168396-15.153885 12.760101-30.142326 19.470703-45.066227 4.507507-10.02436 9.866425-19.669403 14.278076-29.732448 5.909851-13.480635 16.67862-21.102006 29.759888-26.276419 3.588806-1.419578 7.178101-2.837844 10.576782-4.622128 311.163849-.365415 622.518097-.365415 934.340973-.365413z"/><path d="m17.502 1342.469c.661-1.07 1.757-1.573 1.918-2.286 4.594-20.394 9.105-40.806 13.609-61.22 7.178-32.539 14.301-65.092 21.526-97.62 4.001-18.01 8.215-35.973 12.241-53.977 5.954-26.624 11.82-53.269 17.735-79.902 3.684-16.588 7.386-33.173 11.088-49.757 5.978-26.777 11.954-53.555 17.95-80.328 3.32-14.824 6.663-29.643 10.027-44.457 3.29-14.488 6.618-28.967 9.942-43.448.099-.434.331-.837.828-2.058 6.204 9.017 12.138 17.518 17.946 26.103 19.157 28.321 38.228 56.7 57.414 85.001 11.664 17.207 23.536 34.274 35.214 51.472 17.921 26.393 35.731 52.861 53.634 79.267 17.631 26.004 35.318 51.97 52.981 77.953 17.662 25.983 35.325 51.966 52.987 77.949 17.663 25.983 35.325 51.965 52.988 77.948s35.325 51.966 52.988 77.949c17.662 25.983 35.324 51.966 52.987 77.948 11.681 17.182 23.375 34.354 35.042 51.545 18.009 26.535 35.988 53.089 54.001 79.621 17.648 25.993 35.322 51.968 52.984 77.95 17.663 25.983 35.325 51.966 52.988 77.948 17.662 25.983 35.302 51.982 52.994 77.944 15.756 23.121 31.571 46.202 47.601 69.655 7.137-10.493 14.208-20.837 21.226-31.218 17.772-26.289 35.478-52.623 53.294-78.883 11.854-17.473 23.914-34.808 35.771-52.279 17.825-26.264 35.517-52.619 53.334-78.888 11.574-17.065 23.318-34.014 34.9-51.074 18.01-26.529 35.921-53.126 53.924-79.66 18.283-26.946 36.63-53.849 54.943-80.776 17.667-25.978 35.331-51.958 52.987-77.943 11.592-17.06 23.169-34.13 34.751-51.195 18.098-26.666 36.187-53.337 54.294-79.996 17.654-25.992 35.325-51.973 52.989-77.958 17.663-25.985 35.34-51.959 52.986-77.955 18.376-27.072 36.69-54.186 55.09-81.242 17.578-25.849 35.27-51.621 52.841-77.476 17.748-26.114 35.39-52.3 53.126-78.422 2.459-3.622 5.19-7.06 8.371-11.362 1.957 8.222 3.84 15.713 5.515 23.25 3.437 15.47 6.731 30.971 10.141 46.446 5.625 25.522 11.263 51.042 16.957 76.549 4.022 18.011 8.186 35.99 12.215 54 5.954 26.618 11.822 53.257 17.77 79.877 4.025 18.015 8.17 36.003 12.183 54.021 5.644 25.345 11.174 50.715 16.83 76.057 4.697 21.049 9.54 42.064 14.249 63.11 2.994 13.383 5.849 26.798 8.815 40.188.124.562.736 1.016 1.503 1.34.382 11.174.382 22.528.023 34.141-.787 1.089-1.262 1.899-1.633 2.754-3.177 7.318-5.119 15.552-9.758 21.778-9.223 12.376-19.711 23.844-30.078 35.325-10.993 12.173-22.444 23.933-33.709 35.861-11.379 12.048-22.772 24.082-34.162 36.12-11.963 12.642-23.933 25.279-35.893 37.923-11.275 11.918-22.536 23.849-33.815 35.762-12.425 13.123-24.871 26.226-37.295 39.35-11.28 11.914-22.536 23.849-33.814 35.764-12.308 13.004-24.634 25.992-36.943 38.995-11.392 12.034-22.767 24.084-34.159 36.118-12.195 12.882-24.406 25.75-36.601 38.631-11.507 12.155-22.998 24.325-34.505 36.48-12.195 12.882-24.411 25.744-36.599 38.632-11.387 12.042-22.73 24.124-34.125 36.157-12.196 12.878-24.439 25.71-36.644 38.578-11.978 12.629-23.932 25.279-35.901 37.917-12.083 12.758-24.172 25.51-36.257 38.266-11.856 12.515-23.716 25.025-35.563 37.548-11.617 12.281-23.21 24.585-34.832 36.862-12.08 12.76-24.185 25.497-36.274 38.248-12.089 12.752-24.173 25.51-36.258 38.266-11.856 12.514-23.672 25.067-35.574 37.537-15.814 16.568-31.704 33.062-47.529 49.619-1.466 1.535-2.566 3.425-4.061 4.927-6.84 6.872-13.227 14.335-22.971 17.452-1.084.347-1.8 1.845-2.688 2.809-8.687 0-17.375 0-26.289-.33-9.736-4.708-18.057-10.665-25.057-18.514-7.044-7.9-14.2-15.703-21.449-23.415-12.382-13.172-24.88-26.234-37.318-39.354-11.865-12.516-23.706-25.054-35.573-37.569-12.553-13.239-25.132-26.454-37.684-39.695-11.75-12.395-23.475-24.815-35.221-37.214-12.203-12.882-24.423-25.749-36.629-38.63-11.862-12.518-23.712-25.049-35.573-37.568-12.205-12.882-24.422-25.753-36.626-38.636-11.745-12.4-23.475-24.815-35.221-37.214-12.204-12.883-24.423-25.752-36.629-38.633-11.86-12.515-23.708-25.042-35.566-37.558-12.202-12.879-24.415-25.748-36.616-38.629-11.742-12.396-23.461-24.815-35.215-37.2-13.012-13.711-26.075-27.375-39.076-41.097-10.939-11.545-21.805-23.157-32.73-34.715-12.07-12.767-24.175-25.501-36.254-38.259-11.629-12.281-23.236-24.583-34.867-36.862-12.315-13.001-24.657-25.977-36.97-38.981-11.393-12.032-22.742-24.105-34.146-36.126-13.125-13.835-26.319-27.604-39.427-41.455-10.131-10.705-20.194-21.476-30.255-32.248-13.669-14.635-27.127-29.473-41.019-43.893-10.37-10.763-18.107-22.835-21.668-37.454-.17-.698-1.26-1.172-1.922-1.751 0-11.354 0-22.708 0-34.531z"/></g></svg>